/* XPM */
static const char * tedmain_xpm[] = {
"86 86 3 1",
"  	c #000000000000",
"#	c #ffffffffffff",
".	c None",
"......................................................................................",
"......................................................................................",
"......................................................................................",
"......................................................................................",
"......................................................................................",
"......................................................................................",
"......................................................................................",
".............................................     ....................................",
"..........................................               .............................",
"......................................      #             ............................",
".....................................   ##   ##  ##   #     ..........................",
".................................... ##  ##  #######  ###  #  ........................",
".............................        ### ####################   ......................",
"...........................        ##  ######################    .....................",
".......................... ###      #########################     ....................",
"......................... ###    ########################## ####   ...................",
"........................  #       ############## ##  ####### ####   ..................",
".......................       ### ########### ##  ##  ### ### ####  ..................",
"........................  ###  ##############  ##  ## ### #### ###    ................",
"..................... .. ###       #######  ##  #  ##  ##  #######     ...............",
"....................          ###   ###  #   #  ## ### ### #########    ..............",
".................. ..      ########  ###  #  ## ###### ##############     ............",
"..................    ##  ########## ####    ##  #################  ##     ...........",
"...................  ###############  #### # ######################  ##    ...........",
"..................   ##############    ### #####################   ## ##    ..........",
"..................  ###############     ## #######################  ##  #   ..........",
"................   ###############  ###    ########################  ## #   ..........",
"...............   #################  ###  ##########################  ## #   .........",
"...............   ##################   #   ###################### ###  #     .........",
"...............   ###################  #   ####################### ##  ##     ........",
"..............  #####################  #  ######################## ###  #     ........",
".............  ######################  #  #################### #### ##  ##  #   ......",
".............  ######################  #  ####################  ### ### ##  ##  ......",
"............    #####################  #  ##################### ### ### ##  ##  ......",
"............    ####  ###############  #  ##################### ###  ## ##  ##   .....",
"...........     ##     #############  ## ###################### ###  ## ##  ##  ......",
".........       #       ############  ## ###################### ###  ## ##  # ........",
"....            #       ############  ## ###################### ### ### ##  # ........",
"               ##       ############ ########################## ##  ##  #     ........",
"      ######  ######   ############# #########################  ##  ##  #      .......",
"############ ######   ############## #########################  ##  ##  #  #  ........",
"###########  #####   ############### #################### ####  ##  #  #     .........",
"########### #####  ################# #################### ####  ## ##  #     .........",
"##########  ####  #### ### ######### ## ################# ###  ### ##       ..........",
"########## #### ##### ####  ######## ## ## ## ##########  ###  ##  #       ...........",
"#########  ###  ##########  ########  # ## ## ####### ##  ###  #   # #      ..........",
"#########  ###  #########     ######    ## ## ## #### ##  ### ##  ## ##    ...........",
"#########  ###  #########      #####       ## ## #### #  ###  ##  ## ###    ..........",
"######### ####    #########     #####       # ## #### #  ### ###  ### ##     .........",
"########  #####     ##  ###     #####         ## #### #  ### ###  ### ###    .........",
"########  #######    #  ####     ####          # #### ## ### ###  #### ###    ........",
"########  #########    #####      ###            ####  # ###  ###  #### ### # ........",
"########  #########    ########         ##        #### # ###   ##  ##### ## #  .......",
"########  ##########  ###########      ###  #      ### ## ###   ##  #### ## #  .......",
"########  ##  ######################        #       ### #  ###       ###  # #  .......",
"########  #    ######################      ### ##    ##  #  ####   ## ### #    .......",
"########  ##    ######################    #######    ###  ##  ####  #####      .......",
"########          ####################     ###### ##  ###  ##  #### ## ##      .......",
"########          #####################    #####  ##  ####  #   ###  #         .......",
"########   ##     ################## ####    ##  ###  ####  ##  #### #         .......",
"########   ###     ##################  ####      ###  ####  ##  #### ##         ......",
"########    ###    ####################         ###  #####  ##  #### ##         ......",
"########     ###   #####################            ######  ### #### #          ......",
"#########     #### ###############   #####          #####  #### #### #           .....",
"########   #  ######################               #####   ### #####          #  .....",
"########   ## ##########################             ##    ##  ####      #    #  .....",
"########  ########################     #   #  #                ###       #    #   ....",
"########  ##########################         ## ###                   #  #    #   ....",
"########  ############################      #######               ##### ##   ##   ....",
"########  ####################             ########      #      ######  ##   #    ....",
"########   #####################          #########      #      #####   #          ...",
"#########     ########## ############   ##########               ###  ###    ##    ...",
"##########      #########     ######   #############  ##   ##        ###    ###     ..",
"###########     ##   ######          ################ #######  #   ####     ###     ..",
"############    ###     #######     #################  #####  ##  ####    #####      .",
"#############     ###              ###################       ###   #############     .",
"##############     ####          ###############################  ##############     .",
"###############                 ###############################  ################     ",
"################              ####################################################    ",
"##################       #########################################################    ",
"##################################################################################    ",
"###################################################################################   ",
"###################################################################################   ",
"##################################################################################### ",
"##################################################################################### ",
"######################################################################################"};
